<?xml version="1.0" encoding="iso-8859-1"?>
<!-- Generator: Adobe Illustrator 19.0.0, SVG Export Plug-In . SVG Version: 6.00 Build 0)  -->
<svg version="1.1" id="Layer_1" xmlns="http://www.w3.org/2000/svg" xmlns:xlink="http://www.w3.org/1999/xlink" x="0px" y="0px"
	 viewBox="0 0 512 512" style="enable-background:new 0 0 512 512;" xml:space="preserve">
<path style="fill:#FFDB2D;" d="M468.293,512H43.707C19.607,512,0,492.393,0,468.293V43.707C0,19.607,19.607,0,43.707,0H204.8
	c10.345,0,18.732,8.387,18.732,18.732V226.36l19.832-19.879c7.312-7.332,19.206-7.335,26.522,0l19.832,19.879V18.732
	C289.717,8.387,298.104,0,308.449,0h159.844C492.393,0,512,19.607,512,43.707v424.585C512,492.393,492.393,512,468.293,512z"/>
<g>
	<path style="fill:#FF9900;" d="M468.293,0H308.449c-10.345,0-18.732,8.387-18.732,18.732V226.36l-19.832-19.879
		c-3.816-3.826-8.878-5.637-13.885-5.471V512h212.293c24.1,0,43.707-19.607,43.707-43.707V43.707C512,19.607,492.393,0,468.293,0z"
		/>
	<path style="fill:#FF9900;" d="M393.366,412.098H118.634c-10.345,0-18.732-8.387-18.732-18.732V118.634
		c0-10.345,8.387-18.732,18.732-18.732H204.8c10.345,0,18.732,8.387,18.732,18.732V226.36l19.832-19.879
		c7.312-7.332,19.206-7.335,26.522,0l19.832,19.879V118.634c0-10.345,8.387-18.732,18.732-18.732h84.917
		c10.345,0,18.732,8.387,18.732,18.732v274.732C412.098,403.711,403.711,412.098,393.366,412.098z"/>
</g>
<g>
	<path style="fill:#FF4F19;" d="M393.366,99.902h-84.917c-10.345,0-18.732,8.387-18.732,18.732V226.36l-19.832-19.879
		c-3.816-3.826-8.878-5.637-13.885-5.471v211.088h137.366c10.345,0,18.732-8.387,18.732-18.732V118.634
		C412.098,108.289,403.711,99.902,393.366,99.902z"/>
	<path style="fill:#FF4F19;" d="M295.188,284.889l-38.564-38.656l-38.564,38.656c-11.546,11.577-31.993,3.929-31.993-13.68V0H327.18
		v271.149C327.18,288.924,306.662,296.394,295.188,284.889z"/>
</g>
<path style="fill:#FC0023;" d="M256,0v246.859l0.624-0.626l38.564,38.656c11.474,11.505,31.992,4.035,31.992-13.74V0H256z"/>
<g>
</g>
<g>
</g>
<g>
</g>
<g>
</g>
<g>
</g>
<g>
</g>
<g>
</g>
<g>
</g>
<g>
</g>
<g>
</g>
<g>
</g>
<g>
</g>
<g>
</g>
<g>
</g>
<g>
</g>
</svg>
